 <svg  version="1.0" xmlns="http://www.w3.org/2000/svg"  width="300.000000pt" height="300.000000pt" viewBox="0 0 300.000000 300.000000"  preserveAspectRatio="xMidYMid meet">  <g transform="translate(0.000000,300.000000) scale(0.100000,-0.100000)" fill="#ffffff" stroke="none"> <path d="M1379 2671 c-6 -33 -17 -62 -24 -64 -6 -3 -36 -8 -66 -12 l-54 -6 -28 45 c-16 25 -35 46 -43 46 -7 0 -39 -11 -70 -25 l-57 -25 7 -64 6 -64 -47 -35 -47 -35 -46 29 c-26 16 -53 29 -61 29 -8 -1 -34 -23 -58 -51 l-43 -50 35 -53 35 -53 -30 -51 c-31 -55 -35 -56 -105 -43 -23 4 -46 5 -51 2 -5 -3 -18 -34 -30 -68 -23 -70 -24 -68 51 -113 l39 -23 -7 -56 c-4 -31 -8 -57 -9 -59 -2 -1 -27 -10 -57 -20 l-54 -19 -3 -50 c-4 -71 10 -103 47 -103 75 0 88 -8 105 -69 l16 -56 -45 -39 c-25 -21 -45 -44 -45 -51 0 -20 64 -125 76 -125 6 0 32 6 57 14 39 12 49 12 64 0 12 -9 47 -13 99 -14 l80 0 -46 48 c-125 130 -189 345 -160 538 39 256 210 459 456 540 77 25 104 29 204 29 194 0 335 -58 471 -194 85 -85 136 -169 171 -281 33 -106 32 -273 -1 -380 -30 -98 -82 -190 -142 -253 -27 -28 -49 -51 -49 -51 0 -7 162 8 178 16 16 9 35 8 73 0 28 -7 54 -12 59 -12 10 0 70 105 70 124 0 8 -20 32 -44 53 l-45 38 16 56 16 57 63 7 c46 5 64 11 68 23 7 22 11 131 5 136 -2 2 -30 11 -61 20 -48 14 -58 20 -58 39 0 12 -3 38 -6 58 -6 35 -4 38 39 63 68 40 69 44 46 107 -29 75 -32 78 -82 68 -23 -4 -49 -8 -57 -9 -15 0 -70 80 -70 101 0 6 14 30 30 54 17 24 30 47 30 52 -1 15 -88 103 -102 103 -7 0 -33 -13 -57 -30 l-45 -29 -45 34 -46 34 3 65 4 65 -57 26 c-32 14 -63 25 -70 25 -6 0 -26 -21 -45 -46 -32 -46 -33 -46 -79 -39 -78 11 -79 11 -92 76 l-12 59 -78 0 -78 0 -12 -59z m118 23 c14 -4 26 -20 35 -47 17 -52 54 -79 118 -85 50 -5 53 -3 94 37 l42 42 37 -16 c20 -8 37 -21 38 -28 0 -6 0 -32 0 -57 -1 -49 7 -63 60 -103 36 -27 92 -36 104 -18 3 5 19 12 36 16 24 5 36 2 55 -16 29 -27 30 -46 4 -79 -25 -32 -25 -71 -1 -119 26 -50 60 -71 115 -71 35 0 48 -5 60 -22 24 -34 20 -48 -30 -96 -46 -43 -46 -45 -42 -98 4 -43 11 -61 33 -84 16 -17 36 -30 45 -30 28 0 51 -34 46 -65 -6 -33 -16 -41 -66 -49 -45 -7 -67 -31 -84 -88 -16 -55 -9 -80 33 -123 l33 -34 -18 -38 c-20 -39 -26 -42 -91 -30 -17 3 -51 -1 -74 -9 -32 -12 -45 -12 -53 -3 -8 8 -8 13 2 16 6 3 12 9 12 15 0 5 13 28 29 51 73 107 95 193 95 367 0 122 -4 155 -22 208 -79 231 -256 406 -472 466 -176 50 -356 32 -523 -49 -161 -79 -305 -255 -353 -430 -25 -94 -30 -247 -10 -344 9 -46 21 -90 26 -99 5 -10 17 -35 26 -57 10 -22 32 -61 51 -86 18 -26 33 -49 33 -53 0 -8 -65 -8 -74 1 -12 12 -40 13 -74 2 -29 -10 -37 -8 -57 11 -35 33 -36 54 -5 92 47 57 52 72 39 123 -13 50 -56 95 -93 95 -29 0 -52 19 -59 50 -7 32 10 56 48 64 42 10 66 47 72 113 l6 57 -48 41 c-47 42 -48 42 -36 78 12 36 14 37 62 37 64 0 83 10 114 64 31 52 32 84 4 131 -20 33 -20 37 -4 61 23 35 39 39 85 20 61 -24 83 -20 133 25 44 38 47 43 45 90 -2 91 54 116 118 54 29 -29 43 -35 78 -35 72 0 102 16 127 68 36 75 43 80 96 66z"/> <path d="M1325 2259 c24 -40 41 -77 38 -83 -30 -50 -389 -595 -401 -609 -8 -9 -13 -18 -11 -20 2 -1 55 0 118 3 l113 5 150 230 c136 209 168 253 168 228 0 -4 23 -46 50 -92 28 -46 50 -85 50 -85 0 -1 -44 0 -97 1 -96 3 -98 3 -73 -14 13 -10 101 -75 195 -145 l170 -127 96 -1 97 0 -82 144 c-44 79 -142 254 -216 389 l-135 246 -137 1 -137 0 44 -71z m230 1 c14 -22 38 -64 54 -92 16 -29 83 -151 149 -270 67 -119 133 -240 147 -267 l25 -51 -61 0 c-62 0 -62 0 -173 82 -61 45 -126 95 -144 110 l-32 28 27 5 c74 16 77 40 22 140 -45 83 -76 108 -105 84 -15 -12 -199 -287 -263 -392 -13 -20 -30 -41 -39 -46 -23 -11 -129 -14 -135 -4 -6 9 27 60 250 400 68 104 113 183 113 198 0 13 -9 39 -20 57 -11 18 -20 36 -20 40 0 10 28 14 108 16 l72 1 25 -39z"/> <path d="M600 959 c-52 -116 -96 -214 -98 -218 -1 -3 36 -6 82 -6 l84 0 12 38 11 37 85 0 86 0 14 -37 15 -38 85 0 c46 0 83 2 82 5 -2 3 -45 101 -97 218 l-94 212 -86 0 -86 0 -95 -211z m233 162 c13 -5 30 -24 37 -43 7 -18 26 -61 41 -94 48 -103 87 -203 81 -209 -16 -16 -63 -2 -90 26 -52 55 -188 57 -241 3 -35 -36 -91 -45 -91 -16 0 10 21 65 46 123 72 162 95 208 107 213 21 8 85 6 110 -3z"/> <path d="M744 1028 c-22 -33 -32 -58 -40 -101 -9 -51 80 -86 125 -49 31 24 31 77 -1 135 -30 54 -56 58 -84 15z m58 -36 c9 -32 20 -66 24 -75 5 -15 -1 -17 -46 -17 -36 0 -50 4 -48 13 20 68 44 137 48 137 3 0 13 -26 22 -58z"/> <path d="M1095 955 l2 -216 186 -2 185 -2 4 53 3 52 -112 0 -113 0 0 165 0 165 -79 0 -79 0 3 -215z m111 163 c4 -7 8 -67 9 -133 1 -171 13 -185 157 -185 43 0 59 -3 56 -12 -5 -14 -207 -24 -265 -13 l-33 6 0 169 c0 125 3 170 13 173 23 10 56 7 63 -5z"/> <path d="M1520 953 l0 -218 81 0 81 0 -4 78 -3 77 126 0 126 0 -2 47 -2 48 -123 0 -124 0 -1 43 -1 42 137 0 138 0 -1 50 -1 50 -214 0 -213 0 0 -217z m377 164 c3 -4 -23 -8 -58 -9 -153 -4 -172 -9 -187 -43 -18 -38 -15 -61 11 -89 20 -22 32 -25 115 -29 92 -5 138 -16 71 -18 -30 0 -96 -4 -151 -8 -31 -2 -58 -42 -58 -86 0 -22 -5 -46 -12 -53 -18 -18 -56 -15 -66 6 -14 29 -6 323 9 333 16 10 316 6 326 -4z"/> <path d="M2103 1113 c-14 -32 -57 -125 -95 -208 -38 -82 -71 -154 -74 -160 -3 -6 28 -9 83 -9 l88 2 8 36 9 36 89 0 88 0 11 -37 12 -38 84 0 c46 0 84 1 84 2 0 0 -42 97 -94 215 l-95 213 -86 3 -86 3 -26 -58z m162 11 c17 -7 26 -24 109 -213 55 -123 57 -138 17 -139 -20 0 -38 10 -62 34 -26 27 -41 34 -71 34 -46 0 -49 13 -8 30 16 7 32 20 35 31 13 39 -39 159 -69 159 -25 0 -64 -58 -72 -105 -8 -57 -1 -73 36 -86 39 -14 29 -29 -19 -29 -32 0 -44 -6 -67 -35 -20 -25 -36 -35 -56 -35 -36 0 -43 18 -25 61 73 166 129 284 140 291 15 9 89 11 112 2z m-49 -222 c-26 -2 -50 -1 -52 1 -2 2 8 36 23 76 l27 73 25 -73 26 -74 -49 -3z"/> <path d="M541 563 c-12 -38 -25 -74 -28 -80 -3 -8 3 -13 16 -13 12 0 21 6 21 15 0 10 10 15 29 15 16 0 31 -6 35 -15 5 -15 36 -21 36 -7 0 4 -12 40 -26 80 -35 95 -52 96 -83 5z m57 -33 c-2 -4 -10 -5 -19 -1 -13 5 -15 11 -7 31 l10 25 9 -24 c5 -13 8 -27 7 -31z"/> <path d="M730 572 c0 -73 18 -102 64 -102 45 0 53 13 58 93 3 59 2 67 -14 67 -14 0 -18 -11 -20 -62 -3 -57 -5 -63 -25 -66 -22 -3 -23 0 -23 62 0 59 -2 66 -20 66 -18 0 -20 -7 -20 -58z"/> <path d="M940 615 c0 -10 10 -15 26 -15 27 0 27 0 22 -65 -5 -59 -4 -65 13 -65 17 0 19 8 19 65 0 58 2 65 20 65 11 0 20 7 20 15 0 12 -13 15 -60 15 -47 0 -60 -3 -60 -15z"/> <path d="M1156 608 c-37 -52 -9 -138 44 -138 16 0 36 7 44 16 21 21 21 107 0 128 -23 24 -70 20 -88 -6z m69 -58 c0 -39 -3 -45 -22 -48 -23 -3 -25 2 -25 53 0 41 3 46 25 43 19 -3 22 -9 22 -48z"/> <path d="M1360 550 c0 -73 2 -80 20 -80 18 0 19 5 13 47 -4 34 -3 44 5 39 7 -4 12 -13 12 -20 0 -7 6 -21 14 -32 14 -18 16 -17 35 26 l21 45 0 -52 c0 -40 4 -53 15 -53 12 0 15 16 15 80 0 71 -2 80 -18 80 -13 0 -25 -14 -36 -42 l-18 -43 -19 43 c-14 28 -26 42 -39 42 -18 0 -20 -7 -20 -80z"/> <path d="M1629 613 c-8 -9 -14 -37 -14 -63 0 -57 17 -80 59 -80 45 0 56 16 56 80 0 31 -5 61 -12 68 -18 18 -73 15 -89 -5z m66 -63 c0 -38 -3 -45 -20 -45 -17 0 -20 8 -23 48 -3 46 -2 48 20 45 20 -3 23 -9 23 -48z"/> <path d="M1820 615 c0 -8 9 -15 20 -15 18 0 20 -7 20 -65 0 -51 3 -65 15 -65 12 0 15 14 15 65 0 63 1 65 25 65 16 0 25 6 25 15 0 12 -13 15 -60 15 -47 0 -60 -3 -60 -15z"/> <path d="M2028 550 c3 -61 7 -80 18 -80 11 0 14 17 14 80 0 70 -2 80 -17 80 -16 0 -18 -9 -15 -80z"/> <path d="M2153 618 c3 -7 16 -43 28 -80 31 -92 47 -90 80 13 25 78 25 80 5 77 -14 -2 -23 -15 -31 -45 -14 -59 -20 -59 -34 -3 -10 39 -17 50 -33 50 -12 0 -18 -5 -15 -12z"/> <path d="M2375 550 l0 -80 58 0 c44 0 57 3 57 15 0 11 -11 15 -40 15 -33 0 -40 3 -40 20 0 16 7 20 30 20 21 0 30 5 30 16 0 12 -7 15 -30 12 -24 -4 -30 -1 -30 14 0 14 8 18 40 18 29 0 40 4 40 15 0 12 -13 15 -57 15 l-58 0 0 -80z"/> </g> </svg> 